<svg width="24" height="24" viewBox="0 0 24 24" fill="none" xmlns="http://www.w3.org/2000/svg">
<path d="M22.6998 17.5004L14.5998 3.50035C13.7998 2.10035 11.8998 1.60035 10.4998 2.40035C9.99977 2.70035 9.59977 3.10035 9.39977 3.50035L1.29977 17.5004C0.499767 18.9004 0.999767 20.8004 2.39977 21.6004C2.89977 21.9004 3.39977 22.0004 3.89977 22.0004H19.9998C21.6998 22.0004 22.9998 20.6004 22.9998 19.0004C23.0998 18.4004 22.8998 17.9004 22.6998 17.5004ZM11.9998 18.0004C11.3998 18.0004 10.9998 17.6004 10.9998 17.0004C10.9998 16.4004 11.3998 16.0004 11.9998 16.0004C12.5998 16.0004 12.9998 16.4004 12.9998 17.0004C12.9998 17.6004 12.5998 18.0004 11.9998 18.0004ZM12.9998 13.0004C12.9998 13.6004 12.5998 14.0004 11.9998 14.0004C11.3998 14.0004 10.9998 13.6004 10.9998 13.0004V9.00035C10.9998 8.40035 11.3998 8.00035 11.9998 8.00035C12.5998 8.00035 12.9998 8.40035 12.9998 9.00035V13.0004Z" fill="#F9E376"/>
</svg>
